<svg xmlns="http://www.w3.org/2000/svg" viewBox="0 0 431.09430327868847 390.7" width="431.09430327868847" height="390.7"><rect x="0" y="0" width="431.09430327868847" height="390.7" rx="42" fill="#34336F"></rect><g transform="translate(105.54715163934424,40) scale(0.23156919708643847)"><g transform="translate(31.519999999999982,56.51999999999998)"><path d="M 311.5 30 L 341.5 30 L 349.5 32 L 356.5 32 L 385.5 40 Q 416.5 51.5 438 72.5 L 438.5 74 L 441 75.5 L 439.5 80 L 438 80.5 L 423.5 100 L 421.5 100 L 413.5 92 L 395.5 80 L 375.5 70 L 354.5 64 L 347.5 64 L 339.5 62 L 312.5 62 L 307.5 64 L 301.5 64 Q 299.2 66.7 293.5 66 L 284.5 70 L 281.5 70 Q 261.3 78.8 246 92.5 L 245.5 94 L 242 96.5 L 241.5 98 L 236 102.5 L 235.5 104 L 234 104.5 L 220 125.5 L 210 148.5 Q 210.8 153.8 208 155.5 L 208 161.5 L 206 164.5 L 206 171.5 L 204 179.5 L 204 202.5 L 205 204.5 L 203.5 207 L 196.5 207 L 175.5 211 L 174 209.5 Q 175.3 204.8 173 203.5 L 173 178.5 L 174 177.5 L 174 167.5 L 178 151.5 L 178 146.5 L 180 143.5 L 180 139.5 L 184 128.5 L 186 126.5 L 186 123.5 L 204 92.5 L 228.5 66 L 247.5 52 L 266.5 42 L 289.5 34 L 311.5 30 Z " fill="#F3EDE2" fill-rule="evenodd"></path><path d="M 547.5 30 L 577.5 30 L 583.5 32 L 594.5 33 L 617.5 40 L 646.5 56 L 666 72.5 L 670.5 78 L 672 78.5 L 672.5 80 L 674 80.5 Q 694.7 103.8 706 136.5 L 706 140.5 L 708 143.5 L 713 168.5 L 714 201.5 L 713 202.5 L 713 213.5 L 712 214.5 L 712 221.5 L 710 231.5 L 708 234.5 L 708 238.5 L 702 255.5 L 692 276.5 L 672 309.5 L 665.5 324 L 634 323.5 L 636 313.5 L 642 300.5 Q 651.8 279.8 665 262.5 L 674 242.5 L 681 219.5 L 683 188.5 L 682 187.5 L 681 163.5 L 678 150.5 L 670 129.5 Q 657.9 104.6 637.5 88 L 623.5 78 L 612.5 72 L 604.5 70 L 602.5 68 L 592.5 66 L 589.5 64 L 561.5 61 L 560.5 62 L 545.5 62 L 534.5 64 L 509.5 72 Q 480.7 85.2 462 108.5 Q 451.1 121.1 444 137.5 L 442 144.5 L 440 146.5 L 433 170.5 L 433 178.5 L 432 179.5 L 432 322.5 L 430.5 324 L 400 323.5 L 400 183.5 L 401 182.5 L 403 161.5 L 409 140.5 L 420 115.5 L 442 84.5 L 456.5 70 Q 475.7 53.2 500.5 42 L 516.5 36 L 520.5 36 L 532.5 32 Q 542.1 33.1 547.5 30 Z " fill="#F3EDE2" fill-rule="evenodd"></path><path d="M 519.5 89 L 523.5 90 L 554 111.5 L 554 329.5 L 555.5 331 L 556.5 330 L 635.5 330 L 636.5 329 L 646.5 329 L 647.5 330 L 752.5 330 L 766 343.5 L 780 361.5 L 619.5 363 L 618.5 362 L 559.5 362 L 557.5 363 L 554.5 362 L 554 395.5 L 552.5 397 L 550.5 398 L 521.5 398 L 518 395.5 L 518 366.5 L 519 364.5 L 518 363.5 L 518 90.5 L 519.5 89 Z M 521 90 L 519 92 L 519 107 L 520 108 L 520 126 L 519 127 L 519 265 L 520 266 L 520 294 L 519 295 L 519 333 L 520 334 L 519 336 L 519 356 L 520 357 L 519 396 L 522 397 L 551 397 L 553 395 L 553 112 L 521 90 Z " fill="#F3EDE2" fill-rule="evenodd"></path><path d="M 364.5 97 Q 369 96 370 98.5 L 370.5 333 L 372 332.5 L 372.5 330 L 445.5 330 L 447 331.5 L 446.5 362 L 372.5 362 L 370.5 361 L 369 362.5 L 369 395.5 L 367.5 397 L 366 396.5 L 368 395.5 L 368 145.5 L 369 144.5 L 369 99.5 Q 368.3 97.3 364.5 98 L 364.5 97 Z " fill="#F3EDE2" fill-rule="evenodd"></path><path d="M 357.5 98 L 363 98.5 L 357.5 100 L 334.5 100 L 333 101.5 L 333 395.5 L 334.5 397 L 361 397.5 L 334.5 398 L 332 395.5 L 332 342.5 L 331 341.5 L 331 331.5 L 332 330.5 L 332 100.5 L 333.5 99 L 356.5 99 L 357.5 98 Z " fill="#F3EDE2" fill-rule="evenodd"></path><path d="M 465.5 114 L 468 115.5 L 478 140.5 L 485 168.5 L 485 181.5 L 486 182.5 L 486 303.5 L 485 304.5 L 485 327.5 L 486 328.5 L 486 394.5 Q 485.5 397.5 481.5 397 L 477.5 396 L 472.5 397 L 468.5 396 L 467.5 397 L 455.5 397 L 453 395.5 L 453 383.5 L 454 382.5 L 454 319.5 L 454 317.5 Q 455.2 312.8 453 311.5 L 453 286.5 L 454 285.5 L 454 184.5 L 453 183.5 L 452 168.5 L 446 147.5 Q 453.6 128.6 465.5 114 Z " fill="#F3EDE2" fill-rule="evenodd"></path><path d="M 208.5 212 L 227.5 212 L 228.5 213 L 242.5 214 L 273.5 223 Q 304.5 236.5 326 259.5 L 327 261.5 L 327 294.5 L 326 295.5 L 326 303.5 Q 328.8 305.3 327 311.5 L 324 309.5 L 318 297.5 L 303.5 280 L 302 279.5 L 301.5 278 L 300 277.5 L 299.5 276 L 298 275.5 L 297.5 274 L 274.5 258 L 252.5 249 L 227.5 244 L 202.5 244 L 201.5 245 L 189.5 246 L 167.5 252 L 154.5 258 Q 126.9 271.9 108 294.5 L 107.5 296 L 106 296.5 L 98 306.5 L 84 329.5 L 70 364.5 L 70 369.5 L 68 373.5 L 68 379.5 L 66 385.5 L 66 394.5 L 64 404.5 L 64 434.5 L 66 441.5 L 66 450.5 Q 68.9 454.1 68 461.5 L 78 492.5 L 98 527.5 L 124.5 556 L 143.5 570 L 170.5 584 L 173.5 584 L 176 586.5 L 168.5 615 L 165.5 615 L 147.5 608 L 124.5 595 Q 101.5 580 84 559.5 Q 56.1 527.9 42 482.5 L 40 475.5 L 40 470.5 L 38 466.5 L 38 460.5 L 36 455.5 L 36 447.5 L 34 440.5 L 34 394.5 L 35 393.5 L 36 377.5 L 38 371.5 L 38 366.5 L 40 363.5 L 40 358.5 L 48 336.5 L 48 333.5 L 56 315.5 Q 72.9 282.9 98.5 259 Q 122.7 236.7 155.5 223 L 169.5 218 L 186.5 214 L 207.5 213 L 208.5 212 Z " fill="#F3EDE2" fill-rule="evenodd"></path><path d="M 653.5 212 L 675 212.5 L 674 224.5 L 667.5 243 L 664.5 244 L 662.5 243 L 661.5 244 L 651.5 244 L 634.5 248 L 610.5 258 Q 590.5 269.5 576 286.5 Q 566 296.5 560.5 311 L 559 310.5 L 559 261.5 L 572.5 247 L 596.5 230 L 613.5 222 L 631.5 216 L 653.5 212 Z " fill="#F3EDE2" fill-rule="evenodd"></path><path d="M 718.5 219 Q 756.9 232.1 784 256.5 L 784.5 258 L 802 274.5 Q 826.7 303.3 841 342.5 L 848 366.5 L 848 372.5 L 850 377.5 Q 849.1 385.9 852 390.5 L 853 427.5 L 852 428.5 L 852 445.5 Q 849 450.5 850 459.5 L 848 463.5 L 848 468.5 L 846 472.5 L 845 480.5 L 835 509.5 L 816 543.5 Q 801.9 563.9 783.5 580 Q 765.7 594.7 744.5 606 L 719.5 616 L 697.5 622 L 688.5 622 L 678.5 624 L 659.5 624 L 658.5 623 L 646.5 623 L 630.5 620 L 609.5 613 L 584.5 600 L 560 580.5 L 559 578.5 L 559 539.5 L 560 536.5 L 559 533.5 L 560.5 533 L 572.5 548 L 574 548.5 L 586.5 562 L 608.5 578 L 625.5 586 L 654.5 593 L 670.5 593 L 671.5 592 L 689.5 592 Q 692.8 589.3 699.5 590 L 727.5 580 Q 753.9 567.4 773 547.5 L 782.5 536 L 784 535.5 L 800 511.5 L 808 495.5 L 816 473.5 L 820 457.5 L 820 449.5 L 822 441.5 L 823 407.5 L 822 406.5 L 822 390.5 Q 819 386.5 820 378.5 L 809 342.5 Q 792.5 303.5 762.5 278 L 735.5 260 L 723.5 254 L 712.5 251 L 710 248.5 Q 715.1 236.1 717 220.5 L 718.5 219 Z " fill="#F3EDE2" fill-rule="evenodd"></path><path d="M 196.5 250 L 219 250.5 L 226 266.5 Q 236.8 279.7 244 296.5 L 254 320.5 L 254 323.5 L 242.5 324 Q 241.3 321.7 236.5 323 L 235.5 324 L 222.5 324 L 220 321.5 L 210 297.5 Q 195.1 277.9 185 253.5 L 186.5 252 L 196.5 250 Z " fill="#F3EDE2" fill-rule="evenodd"></path><path d="M 220.5 329 L 248.5 330 L 249.5 329 L 261.5 329 L 262.5 330 L 323.5 330 L 327.5 329 L 330 330.5 L 330 360.5 L 328.5 362 L 248.5 363 L 246.5 362 L 245.5 363 L 235.5 363 L 234.5 362 L 138.5 362 L 137.5 363 L 128.5 363 L 127.5 362 L 106 361.5 L 132.5 330 L 219.5 330 L 220.5 329 Z " fill="#F3EDE2" fill-rule="evenodd"></path><path d="M 492.5 330 L 515 330.5 L 516 353.5 L 515 358.5 L 516 360.5 L 514.5 362 L 492.5 362 L 491 360.5 L 491 332.5 L 492.5 330 Z " fill="#F3EDE2" fill-rule="evenodd"></path><path d="M 235.5 368 L 256.5 369 Q 258.3 366.3 264.5 368 L 266 369.5 L 268 378.5 L 269 435.5 L 268 436.5 L 268 455.5 L 266 466.5 L 264.5 468 L 234 467.5 L 236 449.5 L 238 442.5 L 238 393.5 L 236 387.5 L 236 377.5 L 234 369.5 L 235.5 368 Z " fill="#F3EDE2" fill-rule="evenodd"></path><path d="M 622.5 368 L 643.5 369 Q 645.3 366.3 651.5 368 Q 654 369 653 373.5 L 649 393.5 L 649 437.5 L 650 438.5 L 650 448.5 L 651 449.5 L 653 466.5 L 651.5 468 L 621.5 468 L 618 454.5 L 617 399.5 L 618 398.5 L 619 375.5 L 620 370.5 L 622.5 368 Z " fill="#F3EDE2" fill-rule="evenodd"></path><path d="M 276.5 401 L 446.5 401 L 448 402.5 L 447.5 404 L 446.5 402 L 276.5 402 L 275 403.5 L 275.5 434 L 297.5 435 L 298.5 434 L 353.5 434 L 354.5 435 L 377.5 435 L 378.5 434 L 427.5 434 L 428.5 435 L 444.5 435 L 447 433.5 L 447.5 406 L 448 434.5 L 445.5 436 L 426.5 436 L 425.5 435 L 402.5 435 L 400.5 435 L 350.5 436 L 349.5 435 L 340.5 435 L 335.5 436 Q 329.3 437.7 327.5 435 L 300.5 435 L 299.5 436 L 284.5 436 L 283.5 435 L 275.5 435 L 274 433.5 L 274.5 402 L 276.5 401 Z " fill="#F3EDE2" fill-rule="evenodd"></path><path d="M 492.5 401 L 611.5 401 L 613 402.5 L 613 433.5 L 611.5 435 Q 606 433.5 604.5 436 L 602.5 436 L 564.5 435 L 563.5 436 L 519.5 436 L 518.5 435 L 499.5 435 Q 498 437.5 492.5 436 L 490 434.5 L 490.5 402 L 492.5 401 Z M 493 402 L 491 404 L 491 434 L 494 435 L 498 434 L 521 434 L 522 435 L 526 434 L 542 434 L 543 435 L 562 435 L 563 434 L 592 434 L 593 435 L 612 434 L 612 403 L 493 402 Z " fill="#F3EDE2" fill-rule="evenodd"></path><path d="M 102.5 402 L 230.5 402 L 232 403.5 L 232 427.5 L 230.5 434 L 102.5 434 L 101 432.5 L 101 404.5 L 102.5 402 Z " fill="#F3EDE2" fill-rule="evenodd"></path><path d="M 453.5 402 L 484.5 402 L 486 403.5 L 486 433.5 L 484.5 435 L 454.5 435 L 453 433.5 L 453.5 402 Z M 455 403 L 454 433 L 456 434 L 484 434 L 485 433 L 485 405 L 484 403 L 455 403 Z " fill="#F3EDE2" fill-rule="evenodd"></path><path d="M 657.5 402 L 783.5 402 L 785 403.5 L 785 423.5 L 786 428.5 L 784.5 434 L 655 433.5 L 655.5 403 L 657.5 402 Z " fill="#F3EDE2" fill-rule="evenodd"></path><path d="M 334.5 438 L 367.5 438 L 369 439.5 L 369 510.5 Q 371.5 512 370 517.5 L 369 518.5 L 369 545.5 L 370 546.5 L 370 612.5 L 369 613.5 L 369 633.5 L 370 634.5 L 370 704.5 L 369 705.5 L 369 745.5 L 369 747.5 L 368.5 749 L 364.5 748 L 332 725.5 L 332 440.5 L 334.5 438 Z M 336 439 L 334 440 L 333 725 L 364 746 L 368 747 L 368 441 L 366 439 L 364 440 L 337 440 L 336 439 Z " fill="#F3EDE2" fill-rule="evenodd"></path><path d="M 520.5 438 L 552.5 438 L 554 439.5 L 554 723.5 L 551.5 727 L 521.5 749 L 519.5 749 L 518 747.5 L 518 498.5 L 519 497.5 L 519 486.5 L 518 485.5 L 518 441.5 L 520.5 438 Z M 523 439 L 521 440 L 520 463 L 519 464 L 519 477 L 520 478 L 520 556 L 519 557 L 519 621 L 520 622 L 520 639 L 519 640 L 519 704 L 520 705 L 520 721 L 519 722 L 520 747 L 524 746 L 552 726 L 553 724 L 553 441 L 552 439 L 523 439 Z " fill="#F3EDE2" fill-rule="evenodd"></path><path d="M 455.5 440 L 484.5 440 L 486 441.5 L 486 649.5 L 485 650.5 L 484 670.5 L 476 702.5 L 466 723.5 L 456 740.5 L 432.5 766 L 403.5 786 L 382.5 796 L 355.5 804 L 343.5 805 L 342.5 806 L 320.5 807 L 319.5 806 L 300.5 805 L 287.5 802 L 274.5 798 L 257.5 790 Q 229.4 775 210 751.5 Q 188.5 725 178 687.5 L 173 658.5 L 173 629.5 L 174 628.5 L 174 618.5 L 176 607.5 L 178 604.5 L 178 600.5 L 186 577.5 L 210 538.5 L 222.5 512 L 255 512.5 L 254 518.5 L 238 553.5 Q 222.3 572.3 212 596.5 L 206 619.5 L 206 626.5 L 204 633.5 L 204 652.5 L 205 653.5 L 206 668.5 Q 208.7 671.8 208 678.5 L 216 701.5 Q 228.5 729.5 250.5 748 Q 264.8 760.2 283.5 768 L 310.5 775 L 331.5 776 L 332.5 775 L 343.5 775 L 357.5 772 L 369.5 768 L 392.5 757 Q 412.8 743.8 428 725.5 L 446 694.5 L 452 669.5 L 453 645.5 L 454 644.5 L 454 549.5 L 454 547.5 L 453 488.5 L 454 487.5 L 454 460.5 L 453 455.5 L 454 454.5 L 454 441.5 L 455.5 440 Z " fill="#F3EDE2" fill-rule="evenodd"></path><path d="M 104.5 474 L 327 474.5 L 327 505.5 L 325.5 507 L 272.5 506 L 271.5 507 L 222.5 507 L 221.5 506 L 208.5 506 L 207.5 507 L 192.5 507 L 191.5 506 L 166.5 506 L 165.5 507 L 135.5 507 L 104 476.5 L 104.5 474 Z " fill="#F3EDE2" fill-rule="evenodd"></path><path d="M 374.5 474 L 447 474.5 L 448 476.5 L 448 505.5 L 445.5 507 L 433.5 507 L 432.5 506 L 421.5 506 L 420.5 507 L 374.5 507 L 373 505.5 L 373 480.5 L 373 478.5 L 374.5 474 Z " fill="#F3EDE2" fill-rule="evenodd"></path><path d="M 492.5 474 L 515 474.5 L 514 492.5 L 515 493.5 L 515 505.5 L 513.5 507 L 492.5 507 L 491 505.5 L 491 475.5 L 492.5 474 Z " fill="#F3EDE2" fill-rule="evenodd"></path><path d="M 560.5 474 L 782 474.5 L 782 476.5 L 764.5 494 L 754 503.5 L 752.5 506 Q 747.7 504.8 746.5 507 L 724.5 507 L 723.5 506 L 674.5 506 L 673.5 507 L 604.5 507 L 603.5 506 L 579.5 506 L 578.5 507 L 559.5 507 L 558 505.5 L 558 491.5 L 559 490.5 L 559 475.5 L 560.5 474 Z " fill="#F3EDE2" fill-rule="evenodd"></path><path d="M 401.5 511 L 403.5 512 L 430.5 512 L 432 513.5 L 432 655.5 L 433 656.5 L 433 663.5 L 436 680.5 L 440 689.5 L 440 693.5 Q 433.7 711.2 421.5 723 L 420 722.5 L 406 688.5 L 400 656.5 L 400 512.5 L 401.5 511 Z " fill="#F3EDE2" fill-rule="evenodd"></path><path d="M 634.5 512 L 665.5 512 L 668 514.5 L 674 531.5 L 688 553.5 L 696 569.5 L 700 578.5 L 700 582.5 L 698.5 584 L 691.5 584 L 680.5 587 L 670.5 587 Q 662.2 568.3 650 553.5 L 640 533.5 L 633 513.5 L 634.5 512 Z " fill="#F3EDE2" fill-rule="evenodd"></path><path d="M 324.5 532 L 326 532.5 L 327 566.5 L 326 567.5 L 326 579.5 L 316.5 589 L 291.5 606 L 263.5 618 L 238.5 623 L 216.5 624 L 213 622.5 L 212 620.5 L 214 615.5 L 214 609.5 Q 216.8 607.8 216 602.5 L 220.5 593 L 230.5 593 L 255.5 588 Q 279.1 580.1 296 565.5 L 296.5 564 L 316 545.5 L 324.5 532 Z " fill="#F3EDE2" fill-rule="evenodd"></path><path d="M 708.5 624 Q 712.3 623.3 713 625.5 L 714 630.5 L 714 652.5 L 713 653.5 L 713 662.5 L 712 663.5 L 712 671.5 L 711 672.5 L 710 683.5 L 700 714.5 L 686 739.5 Q 674.5 756.5 659.5 770 Q 639.6 787.6 612.5 798 L 600.5 802 L 580.5 806 L 553.5 807 L 552.5 806 L 543.5 806 L 527.5 803 L 499.5 794 L 468.5 776 L 449 758.5 L 466.5 734 L 468.5 734 Q 480 746.5 494.5 756 L 518.5 768 L 526.5 771 L 545.5 775 L 568.5 776 L 569.5 775 L 579.5 775 L 593.5 772 Q 608 768 619.5 761 Q 638.5 750 652 733.5 L 664 716.5 L 672 700.5 L 674 692.5 L 676 690.5 L 683 655.5 L 683 633.5 L 682 630.5 L 683.5 629 L 694.5 628 L 708.5 624 Z " fill="#F3EDE2" fill-rule="evenodd"></path><path d="M 521.5 91 Q 535.2 102.8 552 111.5 L 551.5 396 L 521.5 396 L 520 394.5 L 521 392.5 L 520 391.5 L 520 379.5 L 521 378.5 L 521 98.5 Q 518.8 97.3 520 92.5 L 521.5 91 Z " fill="#F3EDE2" fill-rule="evenodd"></path><path d="M 365.5 99 L 367 99.5 L 368 101.5 L 368 139.5 L 367 140.5 L 366.5 396 L 334 395.5 L 334.5 101 L 358.5 101 L 365.5 99 Z " fill="#F3EDE2" fill-rule="evenodd"></path><path d="M 276.5 403 L 446 403.5 L 446 432.5 L 444.5 434 L 352.5 434 L 351.5 433 L 339.5 433 L 338.5 434 L 280.5 434 L 278.5 434 L 276 432.5 L 276.5 403 Z " fill="#F3EDE2" fill-rule="evenodd"></path><path d="M 493.5 403 L 611 403.5 L 610.5 433 L 605.5 434 L 493.5 434 L 492 432.5 L 492 404.5 L 493.5 403 Z " fill="#F3EDE2" fill-rule="evenodd"></path><path d="M 335.5 440 L 336.5 441 L 363.5 441 L 365.5 441 L 367 441.5 L 366.5 746 L 334 724.5 L 334 441.5 L 335.5 440 Z " fill="#F3EDE2" fill-rule="evenodd"></path><path d="M 523.5 440 Q 527 442.5 534.5 441 L 535.5 440 L 550.5 440 L 552 441.5 L 552 723.5 L 520.5 746 L 520 728.5 L 521 727.5 L 521.5 441 L 523.5 440 Z " fill="#F3EDE2" fill-rule="evenodd"></path><path d="M 454.5 403 L 483.5 403 L 485 404.5 L 485 432.5 L 483.5 434 L 455.5 434 L 454 432.5 L 454.5 403 Z " fill="#C2A24C"></path></g></g><g transform="translate(40,288) scale(0.25696721311475407)"><g transform="translate(1.3,0)"><path d="M 9.5 0 L 44 0.5 L 42 3.5 Q 43.5 9 41 10.5 L 41 108.5 L 42.5 110 L 163.5 110 L 165 108.5 L 165 9.5 L 163 0.5 L 196.5 0 L 197 1.5 L 194 9.5 L 194 218.5 L 197 228.5 L 202.5 234 L 214.5 237 L 224.5 237 L 226 238.5 L 224.5 241 L 161.5 241 L 160.5 242 L 136.5 242 L 134 238.5 L 135.5 237 L 143.5 237 L 144.5 236 L 155.5 235 L 162 230.5 L 164 226.5 Q 162.5 221 165 219.5 L 165 116.5 L 163.5 115 L 43.5 115 L 41 116.5 L 41 217.5 L 43 226.5 L 48.5 233 L 56.5 236 L 72.5 237 L 74 238.5 L 72.5 241 L 0 240.5 Q -1.3 235.3 1.5 234 L 3.5 234 L 8 229.5 L 11 220.5 L 12 182.5 L 11 181.5 L 11 170.5 L 12 169.5 L 12 154.5 L 11 153.5 L 11 49.5 L 12 48.5 L 12 28.5 L 11 27.5 L 11 6.5 L 9.5 0 Z " fill="#F3EDE2" fill-rule="evenodd"></path><path d="M 1052.5 11 Q 1065.8 9.2 1070 16.5 Q 1074.5 21 1073 31.5 L 1067.5 40 L 1058.5 44 L 1054.5 44 Q 1047.1 41.9 1043 36.5 Q 1039.7 31.8 1041 22.5 L 1046.5 14 L 1052.5 11 Z " fill="#F3EDE2" fill-rule="evenodd"></path><path d="M 309.5 80 L 335.5 80 L 343.5 82 L 361.5 91 L 371 100.5 L 375 107.5 L 380 126.5 L 380 218.5 L 382 226.5 L 387.5 233 Q 391.1 235.9 398.5 235 Q 405.7 233.2 409 227.5 L 413.5 216 L 415.5 215 Q 417.8 215.8 417 219.5 Q 414.8 231.3 406.5 237 L 397.5 242 L 381.5 244 L 368.5 240 L 360 232.5 L 356 225.5 L 354 217.5 L 353.5 208 L 351 209.5 Q 345.9 223.4 335.5 232 L 317.5 242 Q 311.4 241.4 308.5 244 L 289.5 244 L 272.5 238 L 262 229.5 Q 252 219.5 254 197.5 Q 258.5 181 270.5 172 L 293.5 159 L 350.5 142 L 352 140.5 L 352 113.5 L 348 101.5 L 341.5 92 L 332.5 86 Q 326.4 86.6 323.5 84 L 312.5 84 L 296.5 88 L 287 95.5 L 285 102.5 L 293 114.5 L 293 122.5 L 288.5 130 L 283.5 133 Q 278.8 131.7 277.5 134 L 269 129.5 Q 263.7 124.8 265 113.5 Q 268.1 99.1 278.5 92 L 293.5 84 L 309.5 80 Z M 349 146 L 340 150 L 323 154 L 313 158 L 298 167 Q 286 176 282 193 L 282 214 L 287 225 L 294 231 L 308 236 Q 323 236 332 229 L 346 213 L 352 197 L 352 151 L 353 150 L 352 147 L 349 146 Z " fill="#F3EDE2" fill-rule="evenodd"></path><path d="M 540.5 80 L 554.5 81 L 568.5 86 L 584 99.5 L 590 110.5 L 594 129.5 L 594 223.5 L 596 230.5 L 600.5 235 L 607.5 237 L 618.5 237 L 620 238.5 L 618.5 241 L 542 240.5 L 543.5 237 L 550.5 237 L 558.5 235 L 565 229.5 L 566 225.5 L 566 198.5 L 567 197.5 L 567 137.5 L 566 136.5 L 566 117.5 Q 563.8 116.2 565 111.5 Q 561.6 100.4 553.5 94 L 546.5 90 L 538.5 88 L 526.5 88 Q 507.5 92 498 105.5 Q 488.2 117.2 485 135.5 L 485 208.5 L 484 212.5 L 485 213.5 L 486 229.5 L 489.5 234 L 500.5 237 L 508.5 237 L 510 238.5 L 508.5 241 L 434.5 241 L 433 239.5 L 434.5 237 L 447.5 236 Q 453.3 234.8 456 230.5 L 458 222.5 L 458 103.5 Q 456.5 95.9 451.5 92 L 446.5 90 L 435.5 90 L 433 87.5 L 435.5 85 L 471.5 85 L 472.5 84 L 483.5 83 L 485 90.5 L 485 103.5 L 484 104.5 L 484 120.5 L 485.5 121 Q 490.9 102.9 504.5 93 L 520.5 84 L 540.5 80 Z " fill="#F3EDE2" fill-rule="evenodd"></path><path d="M 698.5 80 Q 741.3 76.7 758 99.5 Q 764.8 107.7 767 120.5 L 767 131.5 L 768 132.5 L 768 220.5 L 770 227.5 L 773.5 232 L 779.5 235 L 787.5 235 L 796 229.5 L 801.5 216 L 803.5 215 Q 805.8 215.8 805 219.5 Q 802.3 231.8 793.5 238 L 788.5 241 L 777.5 244 L 768.5 244 L 756.5 240 L 749 233.5 L 742 217.5 L 741.5 208 L 740 208.5 Q 733.9 223.4 722.5 233 L 710.5 240 L 697.5 244 L 677.5 244 Q 675.2 241.3 669.5 242 L 659.5 237 L 649 227.5 L 644 216.5 L 643 201.5 Q 646.5 182 659.5 172 Q 670.4 163.4 684.5 158 L 740 141.5 L 741 139.5 L 741 119.5 L 739 108.5 L 736 100.5 L 727.5 90 Q 718.5 83 701.5 84 L 684.5 88 L 676 95.5 L 674 103.5 L 676.5 108 L 681 111.5 Q 684.2 114.8 683 122.5 L 678.5 130 Q 674.5 134 666.5 134 Q 659.3 132.2 656 126.5 Q 653.1 121.9 654 113.5 Q 657.1 102.1 664.5 95 L 677.5 86 L 698.5 80 Z M 737 146 L 734 148 L 731 148 L 702 158 L 688 166 Q 675 175 671 194 L 671 214 L 676 225 L 683 231 L 692 235 Q 696 234 698 236 L 707 235 L 720 229 Q 732 220 738 204 L 741 190 L 741 148 Q 740 145 737 146 Z " fill="#F3EDE2" fill-rule="evenodd"></path><path d="M 858.5 82 L 861 83.5 L 861 200.5 L 862 201.5 L 863 213.5 L 865 218.5 Q 868.3 227.3 875.5 232 L 887.5 237 L 899.5 237 Q 917.5 234 926 221.5 L 934 208.5 L 940 186.5 L 941 110.5 L 940 109.5 L 940 101.5 L 935.5 93 Q 930.3 88.7 919.5 90 L 916 87.5 L 916.5 86 L 953.5 85 L 954.5 84 L 966.5 83 L 967 216.5 L 970 228.5 L 974.5 233 Q 978.5 236.5 987.5 235 Q 993.3 233.8 996 229.5 L 1002.5 216 L 1006 216.5 Q 1004 229.5 995.5 236 L 984.5 242 Q 978.8 241.3 976.5 244 L 967.5 244 Q 964.8 241.2 958.5 242 L 948 234.5 L 942 223.5 L 939.5 206 Q 934.1 220.1 924.5 230 Q 915.5 238 902.5 242 L 881.5 243 L 865.5 240 Q 853.7 234.8 846 225.5 L 840 215.5 L 836 200.5 L 836 174.5 Q 833.8 173.2 835 168.5 L 836 167.5 L 836 137.5 L 835 134.5 L 835 101.5 L 828.5 92 L 823.5 90 L 810 89.5 L 809 87.5 L 811.5 85 L 825.5 85 L 830.5 86 L 831.5 85 L 848.5 85 L 858.5 82 Z " fill="#F3EDE2" fill-rule="evenodd"></path><path d="M 1066.5 83 L 1071 83.5 L 1071 219.5 L 1072 220.5 L 1072 228.5 L 1076.5 234 L 1080.5 236 L 1096.5 237 L 1098 238.5 L 1096.5 241 L 1018 240.5 L 1019.5 237 Q 1037 239 1043 229.5 L 1045 220.5 L 1045 108.5 L 1042 96.5 L 1037.5 92 L 1032.5 90 L 1022.5 90 L 1019 87.5 L 1020.5 86 L 1059.5 85 L 1066.5 83 Z " fill="#F3EDE2" fill-rule="evenodd"></path><path d="M 1161.5 97 L 1206.5 97 L 1217.5 99 Q 1230.4 103.6 1238 113.5 Q 1243.1 119.9 1245 129.5 L 1245 146.5 Q 1242.6 160.6 1233.5 168 Q 1226.3 174.8 1215.5 178 L 1194.5 180 L 1193.5 179 L 1178.5 179 L 1176 180.5 L 1176 240.5 L 1174.5 242 L 1161.5 242 L 1160 240.5 L 1160 98.5 L 1161.5 97 Z M 1179 112 L 1176 114 L 1177 164 L 1211 164 L 1219 160 L 1225 154 L 1229 141 L 1229 135 L 1226 125 Q 1220 116 1209 113 L 1181 113 L 1179 112 Z " fill="#F3EDE2" fill-rule="evenodd"></path><path d="M 1273.5 97 L 1322.5 97 L 1334.5 100 L 1342.5 104 L 1352 112.5 L 1358 124.5 L 1360 135.5 L 1360 143.5 L 1356 157.5 L 1346.5 169 L 1331 177.5 L 1365 238.5 L 1365 241.5 L 1350.5 242 L 1347 239.5 L 1318 187.5 L 1316 181.5 L 1313.5 179 L 1289.5 179 L 1288 180.5 L 1287 182.5 L 1287 240.5 L 1285.5 242 L 1272.5 242 L 1271 240.5 L 1271.5 98 L 1273.5 97 Z M 1290 112 L 1287 116 L 1287 161 L 1289 164 L 1319 164 L 1329 162 L 1336 158 Q 1341 153 1343 146 Q 1345 131 1340 124 Q 1336 117 1328 114 L 1313 113 L 1312 112 L 1299 112 L 1298 113 Q 1291 115 1290 112 Z " fill="#F3EDE2" fill-rule="evenodd"></path></g></g></svg>